<?xml version="1.0" encoding="UTF-8" standalone="no"?><!DOCTYPE svg PUBLIC "-//W3C//DTD SVG 1.1//EN" "http://www.w3.org/Graphics/SVG/1.1/DTD/svg11.dtd"><svg width="100%" height="100%" viewBox="0 0 480 480" version="1.1" xmlns="http://www.w3.org/2000/svg" xmlns:xlink="http://www.w3.org/1999/xlink" xml:space="preserve" xmlns:serif="http://www.serif.com/" style="fill-rule:evenodd;clip-rule:evenodd;stroke-linecap:round;stroke-linejoin:round;stroke-miterlimit:1.5;"><rect id="ArtBoard2" x="-0" y="0" width="479.771" height="479.771" style="fill:none;"/><path d="M438.125,396.003l0,-265.933l-29.597,-68.747l-337.285,-0l-29.598,68.747l0,265.933c0,54.109 43.931,57.48 98.04,57.48l200.4,-0c54.11,-0 98.04,-3.371 98.04,-57.48Z" style="fill:#fff;"/><path d="M438.125,404.478l0,-285.335c0,-0 -69.144,-11.357 -103.949,-9.726c-51.398,2.409 -155.687,22.56 -204.442,24.181c-29.879,0.993 -88.089,-14.455 -88.089,-14.455l0,285.335c0,46.131 43.931,49.005 98.04,49.005l200.4,-0c54.11,-0 98.04,-2.874 98.04,-49.005Z" style="fill:#d8ae48;"/><path d="M438.125,396.003l0,-265.933l-29.597,-68.747l-337.285,-0l-29.598,68.747l0,265.933c0,54.109 43.931,57.48 98.04,57.48l200.4,-0c54.11,-0 98.04,-3.371 98.04,-57.48Z" style="fill-opacity:0.19;"/><path d="M438.125,396.003l0,-265.933l-29.597,-68.747l-337.285,-0l-29.598,68.747l0,265.933c0,54.109 43.931,57.48 98.04,57.48l200.4,-0c54.11,-0 98.04,-3.371 98.04,-57.48Z" style="fill:none;stroke:#000;stroke-width:20px;"/><path d="M438.125,39.368c0,-7.219 -6.321,-13.08 -14.107,-13.08l-368.266,-0c-7.786,-0 -14.107,5.861 -14.107,13.08l0,39.24l396.48,-0l0,-39.24Z" style="fill:#bf0f1e;stroke:#000;stroke-width:20px;"/><rect x="41.645" y="194.083" width="396.48" height="147.992" style="fill:#fff;stroke:#000;stroke-width:20px;"/><path d="M96.78,315.086l-22.058,-88.051l14.141,0l13.839,62.609l0.242,-0l17.102,-62.609l9.609,0l17.103,62.609l0.242,-0l13.839,-62.609l14.141,0l-22.058,88.051l-11.12,0l-16.86,-63.455l-0.242,0l-16.801,63.455l-11.119,0Z" style="fill-rule:nonzero;"/><path d="M185.556,315.086l-0,-88.051l56.324,0l-0,12.631l-42.968,-0l-0,25.079l36.622,0l0,11.906l-36.622,-0l-0,25.865l42.968,-0l-0,12.57l-56.324,0Z" style="fill-rule:nonzero;"/><path d="M254.329,315.086l-0,-88.051l12.63,0l25.261,57.411l24.717,-57.411l12.631,0l-0,88.051l-13.356,0l0,-54.934l-0.241,0l-18.433,42.364l-11.119,-0l-18.432,-42.364l-0.303,0l0,54.934l-13.355,0Z" style="fill-rule:nonzero;"/><path d="M340.446,303.725l8.823,-10.032c3.304,2.659 7.111,4.794 11.422,6.406c4.311,1.611 8.823,2.417 13.537,2.417c5.439,-0 9.71,-1.128 12.812,-3.384c3.102,-2.256 4.653,-5.218 4.653,-8.884c0,-6.93 -3.827,-10.898 -11.482,-11.905c-2.015,-0.242 -3.888,-0.484 -5.62,-0.725c-1.733,-0.242 -3.747,-0.524 -6.044,-0.847c-7.614,-1.047 -13.416,-3.837 -17.404,-8.37c-3.989,-4.532 -5.983,-10.001 -5.983,-16.407c-0,-7.494 2.508,-13.658 7.524,-18.493c5.016,-4.834 12.076,-7.252 21.181,-7.252c5.439,0 10.556,0.867 15.35,2.599c4.795,1.732 9.206,3.928 13.235,6.587l-7.433,10.999c-3.223,-2.014 -6.688,-3.646 -10.395,-4.895c-3.706,-1.249 -7.493,-1.873 -11.361,-1.873c-4.109,-0 -7.594,1.047 -10.455,3.142c-2.86,2.095 -4.291,5.238 -4.291,9.428c0,2.498 0.967,4.834 2.901,7.01c1.934,2.175 5.137,3.606 9.609,4.291c1.168,0.201 2.579,0.413 4.23,0.634c1.652,0.222 3.546,0.453 5.681,0.695c8.219,1.007 14.293,3.989 18.221,8.944c3.928,4.956 5.892,10.435 5.892,16.438c-0,8.098 -2.8,14.383 -8.4,18.855c-5.6,4.472 -13.114,6.708 -22.542,6.708c-13.255,0 -24.475,-4.029 -33.661,-12.086Z" style="fill-rule:nonzero;"/></svg>