<svg id="Capa_1" enable-background="new 0 0 552.47 552.47" height="512" viewBox="0 0 552.47 552.47" width="512" xmlns="http://www.w3.org/2000/svg"><path d="m362.558 138.118v-17.265c0-9.543-7.722-17.265-17.265-17.265h-4.818l-34.533-103.588h-59.415l-34.534 103.588h-4.818c-9.543 0-17.265 7.722-17.265 17.265v17.265c-28.561 0-51.794 23.233-51.794 51.794v310.765c0 28.561 23.233 51.794 51.794 51.794h172.647c28.561 0 51.794-23.233 51.794-51.794v-310.765c.002-28.561-23.231-51.794-51.793-51.794zm-91.145-103.589h9.644l23.014 69.059h-55.672s23.014-69.059 23.014-69.059zm108.41 466.147c0 9.526-7.739 17.265-17.265 17.265h-172.647c-9.526 0-17.265-7.739-17.265-17.265v-51.794h207.176v51.794zm0-86.323h-207.176v-103.588h207.176zm0-138.118h-207.176v-86.324c0-9.526 7.739-17.265 17.265-17.265h172.647c9.526 0 17.265 7.739 17.265 17.265v86.324z"/></svg>