<svg id="Capa_1" enable-background="new 0 0 483.426 483.426" height="512" viewBox="0 0 483.426 483.426" width="512" xmlns="http://www.w3.org/2000/svg"><path d="m241.716 448.889c-65.906 0-121.949-24.295-163.441-61.101-20.519 10.588-40.043 18.344-56.751 22.592-9.222 2.276-18.647-3.237-20.991-12.493-2.344-9.239 3.254-18.63 12.493-20.991 11.988-3.035 25.61-8.177 40.043-15.073-33.922-40.615-53.058-90.622-53.058-139.094 0-122.235 71.166-188.192 138.118-188.192 40.515 0 81.299 18.411 103.588 58.133 22.289-39.722 63.073-58.133 103.588-58.133 66.951 0 138.118 65.957 138.118 188.192 0 47.428-18.31 96.305-50.867 136.432 15.933 8.666 29.623 14.904 39.132 18.125 9.037 3.052 13.876 12.847 10.824 21.884-3.052 9.054-12.831 13.893-21.884 10.824-11.195-3.794-29.994-12.476-52.249-25.105-41.78 38.407-99.036 64.001-166.663 64zm-131.677-79.309c34.58 27.229 79.529 44.78 131.677 44.78 54.306 0 100.806-19.035 135.909-48.203-49.973-32.456-106.808-79.664-135.133-133.464-26.15 54.508-79.63 103.571-132.453 136.887zm28.089-300.514c-50.917 0-103.588 57.476-103.588 153.663 0 42.892 17.889 87.183 49.417 122.37 68.081-41.054 140.495-112.102 140.495-179.357 0-71.352-46.5-96.676-86.324-96.676zm207.177 0c-39.823 0-86.323 25.324-86.323 96.675 0 66.8 78.888 134.88 143.631 175.8 29.573-34.58 46.281-77.354 46.281-118.813-.001-96.186-52.672-153.662-103.589-153.662z"/></svg>