<svg id="Capa_1" enable-background="new 0 0 552.476 552.476" height="512" viewBox="0 0 552.476 552.476" width="512" xmlns="http://www.w3.org/2000/svg"><path d="m494.884 57.084 20.163-30.243c5.294-7.941 3.153-18.647-4.788-23.941-8.009-5.277-18.664-3.136-23.941 4.788l-20.165 30.247-20.165-30.247c-5.294-7.924-16-10.065-23.941-4.788-7.941 5.294-10.082 16-4.788 23.941l20.163 30.243c-33.44 11.905-57.592 43.56-57.592 81.034 0 133.279-108.427 241.706-241.706 241.706-37.474 0-69.128 24.152-81.034 57.592l-30.243-20.163c-7.992-5.277-18.664-3.17-23.941 4.788-5.294 7.941-3.153 18.647 4.788 23.941l34.277 22.845-36.907 36.907c-6.744 6.744-6.744 17.669 0 24.413 3.372 3.372 7.789 5.058 12.207 5.058s8.835-1.686 12.207-5.058l29.581-29.581c13.332 30.493 43.714 51.904 79.065 51.904 228.471 0 414.353-185.882 414.353-414.353-.001-37.474-24.153-69.128-57.593-81.033zm-356.761 460.857c-28.561 0-51.794-23.233-51.794-51.794s23.233-51.794 51.794-51.794c152.314 0 276.235-123.922 276.235-276.235 0-28.561 23.233-51.794 51.794-51.794s51.794 23.233 51.794 51.794c0 209.435-170.387 379.823-379.823 379.823z"/></svg>